<svg xmlns="http://www.w3.org/2000/svg" width="40" height="40" viewBox="0 0 40 40">
    <defs>
        <style>
            .cls-1{fill:#f44336}
        </style>
    </defs>
    <g id="chrome" transform="translate(-.001)">
        <path id="Path_1319" d="M87.917 12.5H69.384a7.5 7.5 0 0 0-6.55 11.166l-9.266-15.9A19.988 19.988 0 0 1 87.917 12.5z" class="cls-1" transform="translate(-49.383)"/>
        <path id="Path_1320" fill="#ffc107" d="M246.52 167.521a20.016 20.016 0 0 1-20 20 17.84 17.84 0 0 1-2.5-.167l9-16.083a7.518 7.518 0 0 0-2.75-10.25 7.43 7.43 0 0 0-3.733-1h18.516a19.719 19.719 0 0 1 1.467 7.5z" transform="translate(-206.519 -147.52)"/>
        <path id="Path_1321" fill="#4caf50" d="M26.5 115.417l-9 16.083h-.017a19.988 19.988 0 0 1-13.3-32.066l9.266 15.9.05.083a7.5 7.5 0 0 0 13 0z" transform="translate(0 -91.666)"/>
        <path id="Path_1322" d="M173.917 171.27a7.5 7.5 0 0 1-13 0l-.05-.083a7.5 7.5 0 0 1 6.55-11.166h.017a7.43 7.43 0 0 1 3.733 1 7.518 7.518 0 0 1 2.75 10.249z" class="cls-1" transform="translate(-147.416 -147.519)"/>
        <path id="Path_1323" fill="#2196f3" d="M173.917 171.27a7.5 7.5 0 0 1-13 0l-.05-.083a7.5 7.5 0 0 1 6.55-11.166h.017a7.43 7.43 0 0 1 3.733 1 7.518 7.518 0 0 1 2.75 10.249z" transform="translate(-147.416 -147.519)"/>
        <path id="Path_1324" fill="#fafafa" d="M157.587 166.021a8.273 8.273 0 0 1-4.138-1.11 8.34 8.34 0 1 1 11.39-3.057 8.38 8.38 0 0 1-7.252 4.167zm.043-15a6.67 6.67 0 1 0 5.761 10 6.666 6.666 0 0 0-5.76-10z" transform="translate(-137.613 -137.687)"/>
    </g>
</svg>
