<svg xmlns="http://www.w3.org/2000/svg" width="200" height="60" viewBox="0 0 200 60">
    <defs>
        <clipPath id="clip-path">
            <path id="Rectangle_203" fill="#fff" stroke="#707070" d="M0 0H200V60H0z" opacity="0.5" transform="translate(360 24)"/>
        </clipPath>
        <style>
            .cls-4{fill:#fff}.cls-3{fill:#f23d46}
        </style>
    </defs>
    <g id="Mask_Group_33" clip-path="url(#clip-path)" transform="translate(-360 -24)">
        <g id="msegslogo" transform="translate(359.314 28.386)">
            <g id="Group_1447">
                <path id="Path_865" d="M44.612 14.167H38.2a18.073 18.073 0 0 0-26.081-2.039c-.031.031-.072.061-.1.092a1.7 1.7 0 0 0-.143.133 17.925 17.925 0 0 0-5.515 9.937 17.129 17.129 0 0 0-.3 3.258.9.9 0 0 1 .02.174l.02.7a16.327 16.327 0 0 0 .328 2.776h.01l.031.01a17.941 17.941 0 0 0 1.332 4.036l-.041-.01a18.041 18.041 0 0 0 8.451 8.625 17.741 17.741 0 0 0 6.771 1.793l1.967 5.388-.707.02c-.748 0-1.465-.031-2.161-.092A23.445 23.445 0 0 1 .768 26.849a.892.892 0 0 1-.051-.195l-.031-.942a23.426 23.426 0 0 1 4.4-13.778c.236-.3.471-.615.707-.922a23.492 23.492 0 0 1 17.23-8.8c.031-.01.072-.01.1-.02.143 0 .287-.01.42-.02h.522a23.351 23.351 0 0 1 20.547 11.995z" class="cls-3"/>
                <path id="Path_866" d="M28.119 46.281v-4.138a.675.675 0 0 1 .676-.676H41.61a.675.675 0 0 1 .676.676v4.138a.675.675 0 0 1-.676.676h-12.8a.671.671 0 0 1-.691-.676z" class="cls-3"/>
                <path id="Path_867" d="M48.351 17.507H22.2a2.573 2.573 0 0 0-2.571 2.571v17.445a.9.9 0 0 0 .9.9h29.625a.665.665 0 0 0 .666-.666V19.975a2.477 2.477 0 0 0-2.469-2.468zm-3.032 14.771a.656.656 0 0 1-.666.656h-18.88a.647.647 0 0 1-.656-.656v-8.594a.656.656 0 0 1 .656-.666h18.869a.665.665 0 0 1 .666.666v8.595z" class="cls-3"/>
            </g>
            <path id="Path_868" d="M59.506 18.029h6.8l9.5 22.2 9.5-22.2h6.761V47.89h-5.999V28.467l-8 19.422H73.53l-8.041-19.422V47.89H59.5V18.029z" class="cls-4"/>
            <path id="Path_869" d="M106.535 48.187c-6.208 0-10.992-3.247-11.084-8.9h6.423c.174 2.4 1.752 3.975 4.538 3.975 2.827 0 4.5-1.5 4.5-3.637 0-6.464-15.407-2.571-15.366-13.389 0-5.388 4.364-8.646 10.531-8.646 6.116 0 10.315 3.124 10.695 8.513h-6.587c-.133-1.967-1.711-3.514-4.282-3.555-2.356-.082-4.108 1.065-4.108 3.514 0 5.993 15.314 2.653 15.314 13.174-.002 4.72-3.761 8.951-10.574 8.951z" class="cls-4"/>
            <path id="Path_870" d="M131.51 48.279c-6.884 0-11.893-4.794-11.893-12.241 0-7.488 4.876-12.241 11.893-12.241 6.843 0 11.678 4.661 11.678 11.719a13.633 13.633 0 0 1-.174 2.315h-17.323a5.545 5.545 0 0 0 5.7 5.48 4.889 4.889 0 0 0 4.753-2.868h6.456c-1.287 4.363-5.221 7.836-11.09 7.836zm-5.778-14.464h11.258c-.082-3.124-2.571-5.091-5.644-5.091a5.507 5.507 0 0 0-5.614 5.091z" class="cls-4"/>
            <path id="Path_871" d="M175.241 27.013h-6.884a7.522 7.522 0 0 0-7.017-3.852c-5.347 0-9.066 3.811-9.066 9.752 0 6.075 3.77 9.844 9.332 9.844a8.111 8.111 0 0 0 8.472-6.884h-10.265v-4.578h16.175v5.224A14.592 14.592 0 0 1 161.4 48.156c-8.687 0-15.273-6.29-15.273-15.233A14.8 14.8 0 0 1 161.36 17.65c6.648-.01 11.955 3.37 13.881 9.363z" class="cls-4"/>
            <path id="Path_872" d="M190.115 48.187c-6.208 0-10.992-3.247-11.084-8.9h6.423c.174 2.4 1.752 3.975 4.538 3.975 2.827 0 4.5-1.5 4.5-3.637 0-6.464-15.407-2.571-15.366-13.389 0-5.388 4.364-8.646 10.531-8.646 6.116 0 10.315 3.124 10.695 8.513h-6.587c-.133-1.967-1.711-3.514-4.282-3.555-2.356-.082-4.108 1.065-4.108 3.514 0 5.993 15.314 2.653 15.314 13.174-.003 4.72-3.773 8.951-10.574 8.951z" class="cls-4"/>
        </g>
    </g>
</svg>
