<svg xmlns="http://www.w3.org/2000/svg" width="30" height="30" viewBox="0 0 30 30">
    <defs>
        <clipPath id="clip-path">
            <path id="Rectangle_665" fill="#2c3134" stroke="#707070" d="M0 0H30V30H0z" transform="translate(1039 395)"/>
        </clipPath>
        <style>
            .cls-3{fill:#2c3134;stroke:#707070;stroke-width:.059px}
        </style>
    </defs>
    <g id="Mask_Group_147" clip-path="url(#clip-path)" transform="translate(-1039 -395)">
        <g id="_001-file" transform="translate(1039 395)">
            <path id="Path_2428" d="M28.875 11.618a7.1 7.1 0 0 0-2.094-5.056l-4.467-4.468A7.1 7.1 0 0 0 17.258 0H9.2a.439.439 0 0 0 0 .879h7.07a3.333 3.333 0 0 1 3.33 3.329V6.5a2.779 2.779 0 0 0 2.776 2.776h2.294A3.332 3.332 0 0 1 28 12.595v14.629a1.9 1.9 0 0 1-1.9 1.9H6.9a1.89 1.89 0 0 1-1.833-1.408L5.052 25H19.3a3.513 3.513 0 0 0 3.509-3.509v-.95a.439.439 0 0 0-.879 0v.95a2.633 2.633 0 0 1-2.63 2.63H3.552A1.55 1.55 0 0 1 2 22.575v-9.511a2.416 2.416 0 0 0 1.548.559H19.3a2.633 2.633 0 0 1 2.63 2.63v2.533a.439.439 0 1 0 .879 0v-2.533a3.513 3.513 0 0 0-3.509-3.509H5.007V2.776A1.9 1.9 0 0 1 6.9.879h.537a.439.439 0 1 0 0-.879H6.9a2.779 2.779 0 0 0-2.771 2.776v5.993h-.577A2.43 2.43 0 0 0 1.125 11.2v11.375A2.43 2.43 0 0 0 3.552 25h.621l.019 2.77a.441.441 0 0 0 .012.1A2.766 2.766 0 0 0 6.9 30h19.2a2.779 2.779 0 0 0 2.776-2.776zM3.552 9.648h.577v3.1h-.577a1.548 1.548 0 0 1 0-3.1zM24.667 8.4h-2.293a1.9 1.9 0 0 1-1.9-1.9V4.208a4.2 4.2 0 0 0-1.285-3.028 6.243 6.243 0 0 1 2.5 1.535l4.471 4.468a6.242 6.242 0 0 1 1.535 2.5A4.2 4.2 0 0 0 24.667 8.4z" class="cls-3"/>
            <path id="Path_2429" d="M18.823 16.51a.439.439 0 0 0 0-.879h-2.265a.439.439 0 0 0-.439.439v5.59a.439.439 0 0 0 .879 0v-2.408h1.646a.439.439 0 1 0 0-.879H17V16.51z" class="cls-3"/>
            <path id="Path_2430" d="M10.8 15.631a.439.439 0 0 0-.439.44v5.499a.466.466 0 0 0 .451.53c.048 0 1.175 0 1.624-.012a2.477 2.477 0 0 0 1.955-.995 3.669 3.669 0 0 0 .688-2.227c0-1.935-1.084-3.234-2.7-3.234H10.8zm3.4 3.235c0 1.361-.732 2.325-1.779 2.343-.267 0-.794.008-1.173.01 0-.641-.006-1.815-.006-2.36V16.51h1.143c.879 0 1.818.619 1.818 2.356z" class="cls-3"/>
            <path id="Path_2431" d="M6.011 15.59a.439.439 0 0 0-.439.439v5.631a.439.439 0 0 0 .879 0v-2.008H7.58a2.029 2.029 0 1 0 0-4.057H6.011zm2.749 2.029a1.181 1.181 0 0 1-1.181 1.15h-1.12v-1.154-1.15h1.12a1.181 1.181 0 0 1 1.18 1.154z" class="cls-3"/>
        </g>
    </g>
</svg>
